<?xml version="1.0" encoding="utf-8"?>
<!-- Generator: Adobe Illustrator 26.2.1, SVG Export Plug-In . SVG Version: 6.00 Build 0)  -->
<svg version="1.1" id="_x30_1" xmlns="http://www.w3.org/2000/svg" xmlns:xlink="http://www.w3.org/1999/xlink" x="0px" y="0px"
	 viewBox="0 0 2374 958.5" style="enable-background:new 0 0 2374 958.5;" xml:space="preserve">
<style type="text/css">
	.st0{fill:url(#SVGID_1_);}
	.st1{fill:url(#SVGID_00000071557308413302545600000007077090601666562235_);}
	.st2{fill:#FFFFFF;}
	.st3{fill:url(#SVGID_00000065055149516099648720000010142746984940064690_);}
</style>
<g>
	<g>
		<linearGradient id="SVGID_1_" gradientUnits="userSpaceOnUse" x1="227.211" y1="54.0884" x2="53.3531" y2="607.7754">
			<stop  offset="2.704910e-02" style="stop-color:#FFFFFF"/>
			<stop  offset="0.9673" style="stop-color:#FFFFFF"/>
		</linearGradient>
		<path class="st0" d="M17,606.2C5.7,565,0,522.3,0,479.2C0,282.7,123.3,103,306.9,32.1L331,94.4c-158,61-264.1,215.6-264.1,384.8
			c0,37.1,4.9,73.9,14.6,109.3L17,606.2z"/>
	</g>
	<g>
		
			<linearGradient id="SVGID_00000136408106876190621790000004216587477359019181_" gradientUnits="userSpaceOnUse" x1="430.0484" y1="-31.0114" x2="794.8087" y2="358.4569">
			<stop  offset="9.389680e-02" style="stop-color:#FFFFFF"/>
			<stop  offset="0.9883" style="stop-color:#FFFFFF;stop-opacity:0"/>
		</linearGradient>
		<path style="fill:url(#SVGID_00000136408106876190621790000004216587477359019181_);" d="M846.8,289.4
			C775.4,152.1,634.8,66.8,480,66.8c-54.9,0-108.1,10.6-158.3,31.4L296,36.5C354.4,12.3,416.3,0,480,0
			c179.8,0,343.1,99.1,426.1,258.5L846.8,289.4z"/>
	</g>
	<path class="st2" d="M336.7,380.3c38.8,0,70.3,20.7,86.5,56.7l1.3,2.8l65-22.1l-1.4-3.3c-25.2-61.4-83.2-99.6-151.5-99.6
		c-48,0-87,15.4-119.2,47c-32,31.4-48.2,70.9-48.2,117.5c0,46.1,16.2,85.5,48.2,116.8c32.2,31.6,71.2,47,119.2,47
		c68.2,0,126.3-38.2,151.5-99.6l1.4-3.3L424.3,518l-1.2,2.9c-14.5,35.5-46.9,56.6-86.5,56.6c-27,0-49.8-9.4-67.8-28
		c-18.2-18.8-27.5-42.5-27.5-70.3c0-28,9-51.2,27.5-70.9C286.9,389.8,309.7,380.3,336.7,380.3z"/>
	<path class="st2" d="M1138.5,361.9c-30-31.2-67.5-47.1-111.4-47.1c-43.6,0-79.5,15.5-106.8,46.2v-40.1h-70.3v437.3h70.3V596.9
		c27.3,30.6,63.2,46.2,106.8,46.2c43.9,0,81.4-15.8,111.4-47.1c29.5-31.4,44.5-70.7,44.5-116.7C1183,432.8,1168,393.3,1138.5,361.9
		L1138.5,361.9z M1083.3,549.6c-18,18.6-40.8,28-67.8,28c-27.4,0-49.5-9.2-67.8-28c-18.3-18.8-27.5-42.5-27.5-70.3
		c0-28.6,9-51.8,27.5-70.9c18.3-18.9,40.5-28,67.8-28c27,0,49.8,9.4,67.8,28c18.1,18.7,26.9,41.9,26.9,70.9
		C1110.2,507.9,1101.4,530.9,1083.3,549.6z"/>
	<path class="st2" d="M1297.4,358.6v-37.7h-70.3V637h70.3V458.7c0-28.6,11.5-50.4,34.2-65c22.5-14.4,49.6-17.1,82.7-8.1l4.3,1.2
		v-67.6l-2.6-0.6C1371.5,308,1326.9,323.3,1297.4,358.6z"/>
	<path class="st2" d="M1600.9,314.8c-46.3,0-85.6,15.8-116.8,47c-31.6,31.6-47.6,71.1-47.6,117.4c0,46.1,16.2,85.4,48.2,116.8
		c32.2,31.6,71.2,47,119.2,47c65,0,120.9-33.1,149.5-88.4l1.6-3.2l-59.5-26.4l-1.5,2.8c-17.3,33.4-50.3,53.3-88.4,53.3
		c-49.5,0-87.4-30.2-97.6-77.4h255l0.3-3c5.5-51-7.6-95.2-38.9-131.5C1693.3,333.2,1651.7,314.8,1600.9,314.8z M1510.3,447.4
		c12.5-43.1,47.7-70.7,90.6-70.7c44.2,0,79.4,27.6,90.8,70.7H1510.3z"/>
	<path class="st2" d="M1951.3,449.2c-38.3-7.2-71.5-13.4-71.5-40.1c0-21.2,22.5-36,54.7-36c35.6,0,55.1,15.3,59.6,46.8l0.5,3.6
		l70.3-14.7l-0.5-3.2c-9.4-55.9-59.2-90.6-129.9-90.6c-35.4,0-65.5,9.2-89.2,27.3c-24.2,18-36.5,41.5-36.5,69.9
		c0,41.2,26.1,72,69.8,82.6c11.3,2.6,23.3,4.8,35,7c43.6,8,84.7,15.5,84.7,44.8c0,22.6-26.3,38.4-63.8,38.4
		c-38.2,0-59.3-15.3-64.5-46.8l-0.6-3.5l-70.2,14.7l0.6,3.2c10.2,56.7,60.6,90.6,134.7,90.6c37.7,0,69.9-9.4,95.8-27.9
		c25.9-18.3,39-41.8,39-70C2069.4,471.4,2003.9,459,1951.3,449.2z"/>
	<path class="st2" d="M2255.9,449.2c-38.3-7.2-71.5-13.4-71.5-40.1c0-21.2,22.5-36,54.7-36c35.6,0,55.1,15.3,59.6,46.8l0.5,3.6
		l70.3-14.7l-0.5-3.2c-9.4-55.9-59.2-90.6-129.9-90.6c-35.4,0-65.5,9.2-89.2,27.3c-24.2,18-36.5,41.5-36.5,69.9
		c0,41.2,26.1,72,69.8,82.6c11.3,2.6,23.3,4.8,35,7c43.6,8,84.7,15.5,84.7,44.8c0,22.6-26.3,38.4-63.8,38.4
		c-38.2,0-59.3-15.3-64.5-46.8l-0.6-3.5l-70.2,14.7l0.6,3.2c10.2,56.7,60.6,90.6,134.7,90.6c37.7,0,69.9-9.4,95.8-27.9
		c25.9-18.3,39-41.8,39-70C2374,471.4,2308.5,459,2255.9,449.2z"/>
	<polygon class="st2" points="744.2,320.9 651.5,555.8 558.1,320.9 481.8,320.9 612.7,641.5 519.5,867.5 586.3,880.8 816.4,320.9 	
		"/>
	
		<linearGradient id="SVGID_00000117669686382327074710000006552502765320348333_" gradientUnits="userSpaceOnUse" x1="-5.1135" y1="697.2839" x2="691.095" y2="882.4044">
		<stop  offset="7.735210e-02" style="stop-color:#FFFFFF"/>
		<stop  offset="0.7617" style="stop-color:#FFFFFF"/>
	</linearGradient>
	<path style="fill:url(#SVGID_00000117669686382327074710000006552502765320348333_);" d="M531.5,838.4l-16.2,39.4
		c-3.2,7.8-10.6,13.1-18.9,13.4c-5.5,0.2-11,0.3-16.6,0.3c-191.4-0.1-360.8-135.2-402.8-321.4L11.7,585
		c23.6,104.4,82.7,199.2,166.5,266.9C263,920.4,369.8,958.2,479,958.4v0c0.2,0,1,0,1,0c6.4,0,12.8-0.1,19.1-0.4
		c34.3-1.4,64.9-22.9,78-54.8l21.2-51.5L531.5,838.4z"/>
</g>
</svg>
